<?xml version="1.0" standalone="no"?>
<!DOCTYPE svg PUBLIC "-//W3C//DTD SVG 20010904//EN"
 "http://www.w3.org/TR/2001/REC-SVG-20010904/DTD/svg10.dtd">
<svg version="1.0" xmlns="http://www.w3.org/2000/svg"
 width="178.000000pt" height="178.000000pt" viewBox="0 0 178.000000 178.000000"
 preserveAspectRatio="xMidYMid meet">
<metadata>
Created by potrace 1.11, written by Peter Selinger 2001-2013
</metadata>
<g transform="translate(0.000000,178.000000) scale(0.100000,-0.100000)"
fill="#000000" stroke="none">
<path d="M735 1766 c-445 -89 -749 -480 -722 -930 8 -124 28 -207 77 -313 94
-202 226 -338 423 -432 130 -63 203 -81 352 -88 162 -7 274 16 421 86 59 28
105 54 102 57 -5 4 -77 -10 -173 -35 -16 -4 -95 -4 -175 0 -295 16 -514 107
-650 270 -65 78 -84 114 -67 127 22 17 81 40 122 47 64 10 133 35 139 50 9 24
-9 25 -64 4 -36 -14 -86 -22 -151 -25 l-97 -4 -15 61 c-18 72 -10 80 57 61
117 -34 148 -35 226 -8 84 30 116 52 60 42 -122 -22 -165 -19 -248 13 -45 17
-90 31 -102 31 -17 0 -20 6 -20 46 0 40 2 45 17 39 17 -7 113 -13 113 -7 0 15
-37 52 -52 52 -15 0 -51 14 -65 25 -4 2 28 95 32 95 2 0 19 -9 37 -19 18 -10
48 -22 67 -26 21 -5 57 -29 97 -66 55 -51 69 -59 102 -59 22 0 54 -3 71 -6 20
-4 31 -3 31 5 0 6 -9 11 -21 11 -28 0 -57 16 -106 61 -24 22 -47 39 -53 39 -6
0 -30 19 -54 43 -24 23 -54 49 -67 58 -31 21 -53 63 -45 85 6 15 11 13 39 -14
33 -32 102 -62 142 -62 14 0 51 -24 90 -57 36 -32 77 -61 91 -65 36 -10 29 4
-17 32 -36 22 -109 115 -109 138 0 5 -13 28 -29 53 -26 39 -29 51 -26 109 2
35 8 66 13 68 9 3 32 -40 32 -59 0 -6 9 -23 19 -38 11 -15 23 -39 26 -54 4
-15 12 -30 17 -33 16 -10 -1 168 -18 187 -20 23 -17 34 11 47 38 17 41 16 54
-28 22 -72 43 -67 45 12 1 46 4 53 22 56 19 3 20 0 14 -45 -4 -26 -22 -91 -40
-143 l-32 -95 16 -52 c24 -74 35 -73 29 1 -4 45 0 79 12 117 26 78 64 150 91
172 13 10 24 27 24 38 0 13 7 19 21 19 19 0 21 -4 15 -32 -3 -18 -15 -44 -26
-58 -33 -41 -70 -117 -72 -147 -4 -62 3 -154 11 -149 5 3 12 32 16 63 4 32 13
73 21 91 20 48 145 222 155 216 5 -3 -5 -23 -21 -45 -17 -24 -32 -60 -36 -87
-4 -27 -16 -58 -29 -72 -43 -48 -59 -100 -30 -100 8 0 22 12 32 28 9 15 32 44
50 65 24 27 33 47 33 73 0 29 7 43 37 70 56 51 86 44 53 -13 -11 -18 -29 -49
-41 -68 -32 -54 -1 -45 60 17 48 49 52 51 68 35 16 -16 15 -19 -17 -52 -19
-19 -64 -53 -101 -75 -87 -52 -123 -82 -160 -137 -47 -67 -26 -64 37 5 42 47
74 71 132 99 43 20 92 49 110 65 32 28 62 37 62 19 0 -6 -25 -37 -55 -70 -42
-44 -69 -64 -105 -76 -27 -9 -74 -37 -105 -62 -57 -47 -76 -79 -27 -47 93 61
114 69 208 70 67 1 103 7 136 22 44 19 46 19 51 2 11 -43 -73 -74 -233 -86
-120 -10 -138 -19 -51 -28 40 -3 82 -11 93 -17 29 -16 101 14 156 65 l44 40
18 -24 c19 -25 19 -25 -1 -28 -11 -2 -27 -15 -36 -28 -31 -49 -144 -94 -233
-94 -36 0 -42 -27 -7 -34 12 -2 69 -12 127 -23 84 -14 115 -25 155 -51 27 -19
97 -54 156 -78 59 -25 115 -51 125 -59 23 -17 -242 72 -317 107 l-56 25 12
-35 c21 -58 -10 -116 -65 -124 -23 -3 -21 -6 25 -34 58 -36 136 -100 255 -208
l84 -78 21 26 c11 14 24 26 28 26 3 0 35 -18 69 -41 51 -33 64 -37 66 -24 6
28 -4 39 -62 70 -46 24 -59 27 -65 16 -5 -8 -14 -10 -22 -5 -32 18 -167 125
-209 163 -44 41 -42 40 45 -16 191 -125 196 -127 206 -112 15 23 10 35 -18 48
-33 15 -313 181 -313 186 0 2 79 -38 177 -87 167 -86 177 -90 190 -72 11 16
18 17 43 7 25 -9 30 -9 30 3 0 19 -41 35 -57 22 -8 -6 -59 12 -158 58 -80 37
-144 68 -143 70 2 1 70 -24 152 -57 82 -33 153 -56 157 -52 4 4 17 36 28 70
19 55 21 86 21 271 0 184 -2 216 -21 273 -46 142 -156 312 -258 397 -109 91
-249 165 -371 196 -89 23 -295 29 -385 12z m317 -50 c230 -45 424 -175 547
-366 44 -67 96 -186 105 -240 4 -20 -4 -7 -17 30 -118 331 -396 544 -737 566
-427 28 -800 -282 -861 -715 -22 -154 6 -315 81 -466 114 -229 318 -389 562
-439 98 -20 247 -20 344 0 101 20 107 11 7 -13 -110 -25 -290 -23 -398 6 -234
63 -430 222 -534 433 -73 149 -85 205 -86 378 0 121 4 158 23 223 122 422 542
685 964 603z m-566 -538 c27 -29 58 -78 53 -82 -11 -10 -94 41 -110 68 -32 52
-34 74 -8 102 l24 26 10 -45 c6 -25 20 -56 31 -69z m807 23 c14 -24 15 -30 3
-40 -8 -7 -25 -9 -39 -6 -15 4 -38 0 -57 -10 -49 -25 -47 -11 3 24 25 17 47
37 50 46 9 22 21 18 40 -14z m424 -163 c-3 -7 -5 -2 -5 12 0 14 2 19 5 13 2
-7 2 -19 0 -25z m10 -80 c-2 -13 -4 -3 -4 22 0 25 2 35 4 23 2 -13 2 -33 0
-45z m-507 -48 c0 -5 -5 -10 -11 -10 -5 0 -7 5 -4 10 3 6 8 10 11 10 2 0 4 -4
4 -10z m45 -10 c3 -5 2 -10 -4 -10 -5 0 -13 5 -16 10 -3 6 -2 10 4 10 5 0 13
-4 16 -10z m170 -10 c3 -5 2 -10 -4 -10 -5 0 -13 5 -16 10 -3 6 -2 10 4 10 5
0 13 -4 16 -10z m-115 -26 c0 -2 -7 -4 -15 -4 -8 0 -15 4 -15 10 0 5 7 7 15 4
8 -4 15 -8 15 -10z m46 -11 c-7 -7 -26 7 -26 19 0 6 6 6 15 -2 9 -7 13 -15 11
-17z m106 -75 c-6 -6 -15 -8 -19 -4 -4 4 -1 11 7 16 19 12 27 3 12 -12z"/>
<path d="M952 934 c-13 -9 -27 -27 -32 -40 -8 -21 -16 -24 -62 -24 -91 0 -139
-25 -60 -32 l37 -3 -42 -25 c-59 -34 -57 -55 2 -28 34 15 43 3 19 -25 -11 -12
-29 -41 -39 -65 -10 -24 -30 -50 -44 -57 -22 -12 -23 -14 -6 -15 11 0 44 26
78 61 32 34 61 59 64 55 4 -3 -9 -22 -27 -41 -23 -24 -29 -35 -18 -35 19 0 68
48 68 66 0 8 4 14 9 14 9 0 23 -66 25 -122 1 -36 2 -37 19 -20 13 13 18 35 18
78 1 32 3 62 6 66 2 4 19 1 38 -6 l34 -15 -11 25 c-10 21 -8 28 12 49 13 14
31 25 41 25 10 0 21 4 24 10 6 10 -11 15 -78 24 -67 9 -89 49 -45 80 15 11 18
16 7 16 -8 0 -25 -7 -37 -16z"/>
<path d="M1087 807 c-20 -18 -37 -39 -37 -48 0 -8 16 -31 36 -50 l35 -34 -10
28 c-20 53 22 115 81 118 19 1 18 3 -7 9 -50 13 -58 11 -98 -23z"/>
<path d="M1190 703 c0 -28 3 -34 10 -23 13 20 13 60 0 60 -5 0 -10 -17 -10
-37z"/>
<path d="M1680 460 c0 -8 70 -50 85 -50 3 0 5 7 5 16 0 8 -16 22 -35 30 -40
16 -55 18 -55 4z"/>
</g>
</svg>
